<svg xmlns="http://www.w3.org/2000/svg" viewBox="0 0 783 179" width="783" height="179" role="img" aria-label="Stepik activity heatmap"><style>.t{font-family:-apple-system,BlinkMacSystemFont,"Segoe UI",Helvetica,Arial,sans-serif;}.title{fill:#24292f;font-size:13px;font-weight:600;}.sub{fill:#57606a;font-size:11px;}.m{fill:#57606a;font-size:9px;}</style><text class="t title" x="32" y="20">Stepik · 1737 задач решено</text><text class="t sub" x="32" y="36">Серия: 1 день · Максимум: 49 дней</text><text class="t m" x="32" y="44">Apr</text><text class="t m" x="102" y="44">Jun</text><text class="t m" x="172" y="44">Jul</text><text class="t m" x="228" y="44">Aug</text><text class="t m" x="284" y="44">Sep</text><text class="t m" x="354" y="44">Oct</text><text class="t m" x="410" y="44">Nov</text><text class="t m" x="466" y="44">Dec</text><text class="t m" x="536" y="44">Jan</text><text class="t m" x="592" y="44">Feb</text><text class="t m" x="648" y="44">Mar</text><text class="t m" x="718" y="44">Apr</text><text class="t m" x="2" y="60">Mon</text><text class="t m" x="2" y="88">Wed</text><text class="t m" x="2" y="116">Fri</text><rect x="46" y="50" width="11" height="11" rx="2" ry="2" fill="#ebedf0"><title>0 submissions · 2025-05-05</title></rect><rect x="60" y="50" width="11" height="11" rx="2" ry="2" fill="#ebedf0"><title>0 submissions · 2025-05-12</title></rect><rect x="74" y="50" width="11" height="11" rx="2" ry="2" fill="#40c463"><title>2 submissions · 2025-05-19</title></rect><rect x="88" y="50" width="11" height="11" rx="2" ry="2" fill="#216e39"><title>6 submissions · 2025-05-26</title></rect><rect x="102" y="50" width="11" height="11" rx="2" ry="2" fill="#40c463"><title>2 submissions · 2025-06-02</title></rect><rect x="116" y="50" width="11" height="11" rx="2" ry="2" fill="#ebedf0"><title>0 submissions · 2025-06-09</title></rect><rect x="130" y="50" width="11" height="11" rx="2" ry="2" fill="#40c463"><title>2 submissions · 2025-06-16</title></rect><rect x="144" y="50" width="11" height="11" rx="2" ry="2" fill="#40c463"><title>3 submissions · 2025-06-23</title></rect><rect x="158" y="50" width="11" height="11" rx="2" ry="2" fill="#216e39"><title>11 submissions · 2025-06-30</title></rect><rect x="172" y="50" width="11" height="11" rx="2" ry="2" fill="#9be9a8"><title>1 submissions · 2025-07-07</title></rect><rect x="186" y="50" width="11" height="11" rx="2" ry="2" fill="#ebedf0"><title>0 submissions · 2025-07-14</title></rect><rect x="200" y="50" width="11" height="11" rx="2" ry="2" fill="#9be9a8"><title>1 submissions · 2025-07-21</title></rect><rect x="214" y="50" width="11" height="11" rx="2" ry="2" fill="#40c463"><title>2 submissions · 2025-07-28</title></rect><rect x="228" y="50" width="11" height="11" rx="2" ry="2" fill="#40c463"><title>3 submissions · 2025-08-04</title></rect><rect x="242" y="50" width="11" height="11" rx="2" ry="2" fill="#ebedf0"><title>0 submissions · 2025-08-11</title></rect><rect x="256" y="50" width="11" height="11" rx="2" ry="2" fill="#ebedf0"><title>0 submissions · 2025-08-18</title></rect><rect x="270" y="50" width="11" height="11" rx="2" ry="2" fill="#ebedf0"><title>0 submissions · 2025-08-25</title></rect><rect x="284" y="50" width="11" height="11" rx="2" ry="2" fill="#216e39"><title>7 submissions · 2025-09-01</title></rect><rect x="298" y="50" width="11" height="11" rx="2" ry="2" fill="#40c463"><title>2 submissions · 2025-09-08</title></rect><rect x="312" y="50" width="11" height="11" rx="2" ry="2" fill="#9be9a8"><title>1 submissions · 2025-09-15</title></rect><rect x="326" y="50" width="11" height="11" rx="2" ry="2" fill="#9be9a8"><title>1 submissions · 2025-09-22</title></rect><rect x="340" y="50" width="11" height="11" rx="2" ry="2" fill="#ebedf0"><title>0 submissions · 2025-09-29</title></rect><rect x="354" y="50" width="11" height="11" rx="2" ry="2" fill="#40c463"><title>3 submissions · 2025-10-06</title></rect><rect x="368" y="50" width="11" height="11" rx="2" ry="2" fill="#40c463"><title>3 submissions · 2025-10-13</title></rect><rect x="382" y="50" width="11" height="11" rx="2" ry="2" fill="#ebedf0"><title>0 submissions · 2025-10-20</title></rect><rect x="396" y="50" width="11" height="11" rx="2" ry="2" fill="#ebedf0"><title>0 submissions · 2025-10-27</title></rect><rect x="410" y="50" width="11" height="11" rx="2" ry="2" fill="#ebedf0"><title>0 submissions · 2025-11-03</title></rect><rect x="424" y="50" width="11" height="11" rx="2" ry="2" fill="#40c463"><title>3 submissions · 2025-11-10</title></rect><rect x="438" y="50" width="11" height="11" rx="2" ry="2" fill="#9be9a8"><title>1 submissions · 2025-11-17</title></rect><rect x="452" y="50" width="11" height="11" rx="2" ry="2" fill="#216e39"><title>7 submissions · 2025-11-24</title></rect><rect x="466" y="50" width="11" height="11" rx="2" ry="2" fill="#216e39"><title>13 submissions · 2025-12-01</title></rect><rect x="480" y="50" width="11" height="11" rx="2" ry="2" fill="#216e39"><title>20 submissions · 2025-12-08</title></rect><rect x="494" y="50" width="11" height="11" rx="2" ry="2" fill="#9be9a8"><title>1 submissions · 2025-12-15</title></rect><rect x="508" y="50" width="11" height="11" rx="2" ry="2" fill="#216e39"><title>6 submissions · 2025-12-22</title></rect><rect x="522" y="50" width="11" height="11" rx="2" ry="2" fill="#40c463"><title>2 submissions · 2025-12-29</title></rect><rect x="536" y="50" width="11" height="11" rx="2" ry="2" fill="#40c463"><title>3 submissions · 2026-01-05</title></rect><rect x="550" y="50" width="11" height="11" rx="2" ry="2" fill="#216e39"><title>6 submissions · 2026-01-12</title></rect><rect x="564" y="50" width="11" height="11" rx="2" ry="2" fill="#9be9a8"><title>1 submissions · 2026-01-19</title></rect><rect x="578" y="50" width="11" height="11" rx="2" ry="2" fill="#216e39"><title>15 submissions · 2026-01-26</title></rect><rect x="592" y="50" width="11" height="11" rx="2" ry="2" fill="#216e39"><title>36 submissions · 2026-02-02</title></rect><rect x="606" y="50" width="11" height="11" rx="2" ry="2" fill="#9be9a8"><title>1 submissions · 2026-02-09</title></rect><rect x="620" y="50" width="11" height="11" rx="2" ry="2" fill="#216e39"><title>22 submissions · 2026-02-16</title></rect><rect x="634" y="50" width="11" height="11" rx="2" ry="2" fill="#9be9a8"><title>1 submissions · 2026-02-23</title></rect><rect x="648" y="50" width="11" height="11" rx="2" ry="2" fill="#40c463"><title>2 submissions · 2026-03-02</title></rect><rect x="662" y="50" width="11" height="11" rx="2" ry="2" fill="#216e39"><title>29 submissions · 2026-03-09</title></rect><rect x="676" y="50" width="11" height="11" rx="2" ry="2" fill="#9be9a8"><title>1 submissions · 2026-03-16</title></rect><rect x="690" y="50" width="11" height="11" rx="2" ry="2" fill="#9be9a8"><title>1 submissions · 2026-03-23</title></rect><rect x="704" y="50" width="11" height="11" rx="2" ry="2" fill="#9be9a8"><title>1 submissions · 2026-03-30</title></rect><rect x="718" y="50" width="11" height="11" rx="2" ry="2" fill="#9be9a8"><title>1 submissions · 2026-04-06</title></rect><rect x="732" y="50" width="11" height="11" rx="2" ry="2" fill="#9be9a8"><title>1 submissions · 2026-04-13</title></rect><rect x="746" y="50" width="11" height="11" rx="2" ry="2" fill="#ebedf0"><title>0 submissions · 2026-04-20</title></rect><rect x="760" y="50" width="11" height="11" rx="2" ry="2" fill="#30a14e"><title>5 submissions · 2026-04-27</title></rect><rect x="46" y="64" width="11" height="11" rx="2" ry="2" fill="#30a14e"><title>4 submissions · 2025-05-06</title></rect><rect x="60" y="64" width="11" height="11" rx="2" ry="2" fill="#9be9a8"><title>1 submissions · 2025-05-13</title></rect><rect x="74" y="64" width="11" height="11" rx="2" ry="2" fill="#30a14e"><title>4 submissions · 2025-05-20</title></rect><rect x="88" y="64" width="11" height="11" rx="2" ry="2" fill="#216e39"><title>6 submissions · 2025-05-27</title></rect><rect x="102" y="64" width="11" height="11" rx="2" ry="2" fill="#216e39"><title>6 submissions · 2025-06-03</title></rect><rect x="116" y="64" width="11" height="11" rx="2" ry="2" fill="#30a14e"><title>4 submissions · 2025-06-10</title></rect><rect x="130" y="64" width="11" height="11" rx="2" ry="2" fill="#40c463"><title>3 submissions · 2025-06-17</title></rect><rect x="144" y="64" width="11" height="11" rx="2" ry="2" fill="#30a14e"><title>4 submissions · 2025-06-24</title></rect><rect x="158" y="64" width="11" height="11" rx="2" ry="2" fill="#30a14e"><title>4 submissions · 2025-07-01</title></rect><rect x="172" y="64" width="11" height="11" rx="2" ry="2" fill="#40c463"><title>2 submissions · 2025-07-08</title></rect><rect x="186" y="64" width="11" height="11" rx="2" ry="2" fill="#40c463"><title>2 submissions · 2025-07-15</title></rect><rect x="200" y="64" width="11" height="11" rx="2" ry="2" fill="#ebedf0"><title>0 submissions · 2025-07-22</title></rect><rect x="214" y="64" width="11" height="11" rx="2" ry="2" fill="#40c463"><title>2 submissions · 2025-07-29</title></rect><rect x="228" y="64" width="11" height="11" rx="2" ry="2" fill="#40c463"><title>2 submissions · 2025-08-05</title></rect><rect x="242" y="64" width="11" height="11" rx="2" ry="2" fill="#9be9a8"><title>1 submissions · 2025-08-12</title></rect><rect x="256" y="64" width="11" height="11" rx="2" ry="2" fill="#40c463"><title>3 submissions · 2025-08-19</title></rect><rect x="270" y="64" width="11" height="11" rx="2" ry="2" fill="#40c463"><title>2 submissions · 2025-08-26</title></rect><rect x="284" y="64" width="11" height="11" rx="2" ry="2" fill="#40c463"><title>3 submissions · 2025-09-02</title></rect><rect x="298" y="64" width="11" height="11" rx="2" ry="2" fill="#9be9a8"><title>1 submissions · 2025-09-09</title></rect><rect x="312" y="64" width="11" height="11" rx="2" ry="2" fill="#216e39"><title>6 submissions · 2025-09-16</title></rect><rect x="326" y="64" width="11" height="11" rx="2" ry="2" fill="#9be9a8"><title>1 submissions · 2025-09-23</title></rect><rect x="340" y="64" width="11" height="11" rx="2" ry="2" fill="#40c463"><title>2 submissions · 2025-09-30</title></rect><rect x="354" y="64" width="11" height="11" rx="2" ry="2" fill="#30a14e"><title>5 submissions · 2025-10-07</title></rect><rect x="368" y="64" width="11" height="11" rx="2" ry="2" fill="#30a14e"><title>4 submissions · 2025-10-14</title></rect><rect x="382" y="64" width="11" height="11" rx="2" ry="2" fill="#40c463"><title>2 submissions · 2025-10-21</title></rect><rect x="396" y="64" width="11" height="11" rx="2" ry="2" fill="#30a14e"><title>5 submissions · 2025-10-28</title></rect><rect x="410" y="64" width="11" height="11" rx="2" ry="2" fill="#9be9a8"><title>1 submissions · 2025-11-04</title></rect><rect x="424" y="64" width="11" height="11" rx="2" ry="2" fill="#40c463"><title>3 submissions · 2025-11-11</title></rect><rect x="438" y="64" width="11" height="11" rx="2" ry="2" fill="#40c463"><title>3 submissions · 2025-11-18</title></rect><rect x="452" y="64" width="11" height="11" rx="2" ry="2" fill="#216e39"><title>7 submissions · 2025-11-25</title></rect><rect x="466" y="64" width="11" height="11" rx="2" ry="2" fill="#216e39"><title>14 submissions · 2025-12-02</title></rect><rect x="480" y="64" width="11" height="11" rx="2" ry="2" fill="#30a14e"><title>5 submissions · 2025-12-09</title></rect><rect x="494" y="64" width="11" height="11" rx="2" ry="2" fill="#216e39"><title>32 submissions · 2025-12-16</title></rect><rect x="508" y="64" width="11" height="11" rx="2" ry="2" fill="#216e39"><title>17 submissions · 2025-12-23</title></rect><rect x="522" y="64" width="11" height="11" rx="2" ry="2" fill="#40c463"><title>3 submissions · 2025-12-30</title></rect><rect x="536" y="64" width="11" height="11" rx="2" ry="2" fill="#9be9a8"><title>1 submissions · 2026-01-06</title></rect><rect x="550" y="64" width="11" height="11" rx="2" ry="2" fill="#40c463"><title>2 submissions · 2026-01-13</title></rect><rect x="564" y="64" width="11" height="11" rx="2" ry="2" fill="#40c463"><title>3 submissions · 2026-01-20</title></rect><rect x="578" y="64" width="11" height="11" rx="2" ry="2" fill="#9be9a8"><title>1 submissions · 2026-01-27</title></rect><rect x="592" y="64" width="11" height="11" rx="2" ry="2" fill="#9be9a8"><title>1 submissions · 2026-02-03</title></rect><rect x="606" y="64" width="11" height="11" rx="2" ry="2" fill="#40c463"><title>3 submissions · 2026-02-10</title></rect><rect x="620" y="64" width="11" height="11" rx="2" ry="2" fill="#216e39"><title>16 submissions · 2026-02-17</title></rect><rect x="634" y="64" width="11" height="11" rx="2" ry="2" fill="#9be9a8"><title>1 submissions · 2026-02-24</title></rect><rect x="648" y="64" width="11" height="11" rx="2" ry="2" fill="#9be9a8"><title>1 submissions · 2026-03-03</title></rect><rect x="662" y="64" width="11" height="11" rx="2" ry="2" fill="#9be9a8"><title>1 submissions · 2026-03-10</title></rect><rect x="676" y="64" width="11" height="11" rx="2" ry="2" fill="#9be9a8"><title>1 submissions · 2026-03-17</title></rect><rect x="690" y="64" width="11" height="11" rx="2" ry="2" fill="#9be9a8"><title>1 submissions · 2026-03-24</title></rect><rect x="704" y="64" width="11" height="11" rx="2" ry="2" fill="#9be9a8"><title>1 submissions · 2026-03-31</title></rect><rect x="718" y="64" width="11" height="11" rx="2" ry="2" fill="#216e39"><title>8 submissions · 2026-04-07</title></rect><rect x="732" y="64" width="11" height="11" rx="2" ry="2" fill="#9be9a8"><title>1 submissions · 2026-04-14</title></rect><rect x="746" y="64" width="11" height="11" rx="2" ry="2" fill="#9be9a8"><title>1 submissions · 2026-04-21</title></rect><rect x="760" y="64" width="11" height="11" rx="2" ry="2" fill="#30a14e"><title>4 submissions · 2026-04-28</title></rect><rect x="46" y="78" width="11" height="11" rx="2" ry="2" fill="#9be9a8"><title>1 submissions · 2025-05-07</title></rect><rect x="60" y="78" width="11" height="11" rx="2" ry="2" fill="#ebedf0"><title>0 submissions · 2025-05-14</title></rect><rect x="74" y="78" width="11" height="11" rx="2" ry="2" fill="#216e39"><title>22 submissions · 2025-05-21</title></rect><rect x="88" y="78" width="11" height="11" rx="2" ry="2" fill="#216e39"><title>8 submissions · 2025-05-28</title></rect><rect x="102" y="78" width="11" height="11" rx="2" ry="2" fill="#40c463"><title>3 submissions · 2025-06-04</title></rect><rect x="116" y="78" width="11" height="11" rx="2" ry="2" fill="#40c463"><title>3 submissions · 2025-06-11</title></rect><rect x="130" y="78" width="11" height="11" rx="2" ry="2" fill="#40c463"><title>2 submissions · 2025-06-18</title></rect><rect x="144" y="78" width="11" height="11" rx="2" ry="2" fill="#216e39"><title>6 submissions · 2025-06-25</title></rect><rect x="158" y="78" width="11" height="11" rx="2" ry="2" fill="#40c463"><title>3 submissions · 2025-07-02</title></rect><rect x="172" y="78" width="11" height="11" rx="2" ry="2" fill="#40c463"><title>2 submissions · 2025-07-09</title></rect><rect x="186" y="78" width="11" height="11" rx="2" ry="2" fill="#40c463"><title>2 submissions · 2025-07-16</title></rect><rect x="200" y="78" width="11" height="11" rx="2" ry="2" fill="#40c463"><title>2 submissions · 2025-07-23</title></rect><rect x="214" y="78" width="11" height="11" rx="2" ry="2" fill="#40c463"><title>3 submissions · 2025-07-30</title></rect><rect x="228" y="78" width="11" height="11" rx="2" ry="2" fill="#30a14e"><title>4 submissions · 2025-08-06</title></rect><rect x="242" y="78" width="11" height="11" rx="2" ry="2" fill="#40c463"><title>2 submissions · 2025-08-13</title></rect><rect x="256" y="78" width="11" height="11" rx="2" ry="2" fill="#40c463"><title>2 submissions · 2025-08-20</title></rect><rect x="270" y="78" width="11" height="11" rx="2" ry="2" fill="#9be9a8"><title>1 submissions · 2025-08-27</title></rect><rect x="284" y="78" width="11" height="11" rx="2" ry="2" fill="#40c463"><title>2 submissions · 2025-09-03</title></rect><rect x="298" y="78" width="11" height="11" rx="2" ry="2" fill="#40c463"><title>2 submissions · 2025-09-10</title></rect><rect x="312" y="78" width="11" height="11" rx="2" ry="2" fill="#9be9a8"><title>1 submissions · 2025-09-17</title></rect><rect x="326" y="78" width="11" height="11" rx="2" ry="2" fill="#9be9a8"><title>1 submissions · 2025-09-24</title></rect><rect x="340" y="78" width="11" height="11" rx="2" ry="2" fill="#9be9a8"><title>1 submissions · 2025-10-01</title></rect><rect x="354" y="78" width="11" height="11" rx="2" ry="2" fill="#9be9a8"><title>1 submissions · 2025-10-08</title></rect><rect x="368" y="78" width="11" height="11" rx="2" ry="2" fill="#ebedf0"><title>0 submissions · 2025-10-15</title></rect><rect x="382" y="78" width="11" height="11" rx="2" ry="2" fill="#ebedf0"><title>0 submissions · 2025-10-22</title></rect><rect x="396" y="78" width="11" height="11" rx="2" ry="2" fill="#9be9a8"><title>1 submissions · 2025-10-29</title></rect><rect x="410" y="78" width="11" height="11" rx="2" ry="2" fill="#ebedf0"><title>0 submissions · 2025-11-05</title></rect><rect x="424" y="78" width="11" height="11" rx="2" ry="2" fill="#ebedf0"><title>0 submissions · 2025-11-12</title></rect><rect x="438" y="78" width="11" height="11" rx="2" ry="2" fill="#216e39"><title>6 submissions · 2025-11-19</title></rect><rect x="452" y="78" width="11" height="11" rx="2" ry="2" fill="#216e39"><title>14 submissions · 2025-11-26</title></rect><rect x="466" y="78" width="11" height="11" rx="2" ry="2" fill="#9be9a8"><title>1 submissions · 2025-12-03</title></rect><rect x="480" y="78" width="11" height="11" rx="2" ry="2" fill="#216e39"><title>6 submissions · 2025-12-10</title></rect><rect x="494" y="78" width="11" height="11" rx="2" ry="2" fill="#30a14e"><title>5 submissions · 2025-12-17</title></rect><rect x="508" y="78" width="11" height="11" rx="2" ry="2" fill="#216e39"><title>12 submissions · 2025-12-24</title></rect><rect x="522" y="78" width="11" height="11" rx="2" ry="2" fill="#216e39"><title>19 submissions · 2025-12-31</title></rect><rect x="536" y="78" width="11" height="11" rx="2" ry="2" fill="#30a14e"><title>4 submissions · 2026-01-07</title></rect><rect x="550" y="78" width="11" height="11" rx="2" ry="2" fill="#40c463"><title>2 submissions · 2026-01-14</title></rect><rect x="564" y="78" width="11" height="11" rx="2" ry="2" fill="#9be9a8"><title>1 submissions · 2026-01-21</title></rect><rect x="578" y="78" width="11" height="11" rx="2" ry="2" fill="#216e39"><title>16 submissions · 2026-01-28</title></rect><rect x="592" y="78" width="11" height="11" rx="2" ry="2" fill="#30a14e"><title>5 submissions · 2026-02-04</title></rect><rect x="606" y="78" width="11" height="11" rx="2" ry="2" fill="#40c463"><title>2 submissions · 2026-02-11</title></rect><rect x="620" y="78" width="11" height="11" rx="2" ry="2" fill="#216e39"><title>6 submissions · 2026-02-18</title></rect><rect x="634" y="78" width="11" height="11" rx="2" ry="2" fill="#9be9a8"><title>1 submissions · 2026-02-25</title></rect><rect x="648" y="78" width="11" height="11" rx="2" ry="2" fill="#9be9a8"><title>1 submissions · 2026-03-04</title></rect><rect x="662" y="78" width="11" height="11" rx="2" ry="2" fill="#216e39"><title>8 submissions · 2026-03-11</title></rect><rect x="676" y="78" width="11" height="11" rx="2" ry="2" fill="#9be9a8"><title>1 submissions · 2026-03-18</title></rect><rect x="690" y="78" width="11" height="11" rx="2" ry="2" fill="#ebedf0"><title>0 submissions · 2026-03-25</title></rect><rect x="704" y="78" width="11" height="11" rx="2" ry="2" fill="#9be9a8"><title>1 submissions · 2026-04-01</title></rect><rect x="718" y="78" width="11" height="11" rx="2" ry="2" fill="#40c463"><title>2 submissions · 2026-04-08</title></rect><rect x="732" y="78" width="11" height="11" rx="2" ry="2" fill="#9be9a8"><title>1 submissions · 2026-04-15</title></rect><rect x="746" y="78" width="11" height="11" rx="2" ry="2" fill="#9be9a8"><title>1 submissions · 2026-04-22</title></rect><rect x="760" y="78" width="11" height="11" rx="2" ry="2" fill="#216e39"><title>37 submissions · 2026-04-29</title></rect><rect x="46" y="92" width="11" height="11" rx="2" ry="2" fill="#9be9a8"><title>1 submissions · 2025-05-08</title></rect><rect x="60" y="92" width="11" height="11" rx="2" ry="2" fill="#ebedf0"><title>0 submissions · 2025-05-15</title></rect><rect x="74" y="92" width="11" height="11" rx="2" ry="2" fill="#9be9a8"><title>1 submissions · 2025-05-22</title></rect><rect x="88" y="92" width="11" height="11" rx="2" ry="2" fill="#30a14e"><title>5 submissions · 2025-05-29</title></rect><rect x="102" y="92" width="11" height="11" rx="2" ry="2" fill="#30a14e"><title>4 submissions · 2025-06-05</title></rect><rect x="116" y="92" width="11" height="11" rx="2" ry="2" fill="#40c463"><title>2 submissions · 2025-06-12</title></rect><rect x="130" y="92" width="11" height="11" rx="2" ry="2" fill="#40c463"><title>2 submissions · 2025-06-19</title></rect><rect x="144" y="92" width="11" height="11" rx="2" ry="2" fill="#40c463"><title>3 submissions · 2025-06-26</title></rect><rect x="158" y="92" width="11" height="11" rx="2" ry="2" fill="#40c463"><title>3 submissions · 2025-07-03</title></rect><rect x="172" y="92" width="11" height="11" rx="2" ry="2" fill="#ebedf0"><title>0 submissions · 2025-07-10</title></rect><rect x="186" y="92" width="11" height="11" rx="2" ry="2" fill="#ebedf0"><title>0 submissions · 2025-07-17</title></rect><rect x="200" y="92" width="11" height="11" rx="2" ry="2" fill="#ebedf0"><title>0 submissions · 2025-07-24</title></rect><rect x="214" y="92" width="11" height="11" rx="2" ry="2" fill="#40c463"><title>3 submissions · 2025-07-31</title></rect><rect x="228" y="92" width="11" height="11" rx="2" ry="2" fill="#ebedf0"><title>0 submissions · 2025-08-07</title></rect><rect x="242" y="92" width="11" height="11" rx="2" ry="2" fill="#9be9a8"><title>1 submissions · 2025-08-14</title></rect><rect x="256" y="92" width="11" height="11" rx="2" ry="2" fill="#9be9a8"><title>1 submissions · 2025-08-21</title></rect><rect x="270" y="92" width="11" height="11" rx="2" ry="2" fill="#30a14e"><title>4 submissions · 2025-08-28</title></rect><rect x="284" y="92" width="11" height="11" rx="2" ry="2" fill="#40c463"><title>3 submissions · 2025-09-04</title></rect><rect x="298" y="92" width="11" height="11" rx="2" ry="2" fill="#ebedf0"><title>0 submissions · 2025-09-11</title></rect><rect x="312" y="92" width="11" height="11" rx="2" ry="2" fill="#9be9a8"><title>1 submissions · 2025-09-18</title></rect><rect x="326" y="92" width="11" height="11" rx="2" ry="2" fill="#ebedf0"><title>0 submissions · 2025-09-25</title></rect><rect x="340" y="92" width="11" height="11" rx="2" ry="2" fill="#9be9a8"><title>1 submissions · 2025-10-02</title></rect><rect x="354" y="92" width="11" height="11" rx="2" ry="2" fill="#9be9a8"><title>1 submissions · 2025-10-09</title></rect><rect x="368" y="92" width="11" height="11" rx="2" ry="2" fill="#9be9a8"><title>1 submissions · 2025-10-16</title></rect><rect x="382" y="92" width="11" height="11" rx="2" ry="2" fill="#40c463"><title>3 submissions · 2025-10-23</title></rect><rect x="396" y="92" width="11" height="11" rx="2" ry="2" fill="#9be9a8"><title>1 submissions · 2025-10-30</title></rect><rect x="410" y="92" width="11" height="11" rx="2" ry="2" fill="#9be9a8"><title>1 submissions · 2025-11-06</title></rect><rect x="424" y="92" width="11" height="11" rx="2" ry="2" fill="#9be9a8"><title>1 submissions · 2025-11-13</title></rect><rect x="438" y="92" width="11" height="11" rx="2" ry="2" fill="#40c463"><title>3 submissions · 2025-11-20</title></rect><rect x="452" y="92" width="11" height="11" rx="2" ry="2" fill="#216e39"><title>30 submissions · 2025-11-27</title></rect><rect x="466" y="92" width="11" height="11" rx="2" ry="2" fill="#216e39"><title>13 submissions · 2025-12-04</title></rect><rect x="480" y="92" width="11" height="11" rx="2" ry="2" fill="#30a14e"><title>5 submissions · 2025-12-11</title></rect><rect x="494" y="92" width="11" height="11" rx="2" ry="2" fill="#216e39"><title>14 submissions · 2025-12-18</title></rect><rect x="508" y="92" width="11" height="11" rx="2" ry="2" fill="#216e39"><title>58 submissions · 2025-12-25</title></rect><rect x="522" y="92" width="11" height="11" rx="2" ry="2" fill="#216e39"><title>6 submissions · 2026-01-01</title></rect><rect x="536" y="92" width="11" height="11" rx="2" ry="2" fill="#40c463"><title>2 submissions · 2026-01-08</title></rect><rect x="550" y="92" width="11" height="11" rx="2" ry="2" fill="#9be9a8"><title>1 submissions · 2026-01-15</title></rect><rect x="564" y="92" width="11" height="11" rx="2" ry="2" fill="#9be9a8"><title>1 submissions · 2026-01-22</title></rect><rect x="578" y="92" width="11" height="11" rx="2" ry="2" fill="#40c463"><title>2 submissions · 2026-01-29</title></rect><rect x="592" y="92" width="11" height="11" rx="2" ry="2" fill="#216e39"><title>6 submissions · 2026-02-05</title></rect><rect x="606" y="92" width="11" height="11" rx="2" ry="2" fill="#40c463"><title>3 submissions · 2026-02-12</title></rect><rect x="620" y="92" width="11" height="11" rx="2" ry="2" fill="#216e39"><title>8 submissions · 2026-02-19</title></rect><rect x="634" y="92" width="11" height="11" rx="2" ry="2" fill="#30a14e"><title>4 submissions · 2026-02-26</title></rect><rect x="648" y="92" width="11" height="11" rx="2" ry="2" fill="#9be9a8"><title>1 submissions · 2026-03-05</title></rect><rect x="662" y="92" width="11" height="11" rx="2" ry="2" fill="#30a14e"><title>5 submissions · 2026-03-12</title></rect><rect x="676" y="92" width="11" height="11" rx="2" ry="2" fill="#9be9a8"><title>1 submissions · 2026-03-19</title></rect><rect x="690" y="92" width="11" height="11" rx="2" ry="2" fill="#9be9a8"><title>1 submissions · 2026-03-26</title></rect><rect x="704" y="92" width="11" height="11" rx="2" ry="2" fill="#9be9a8"><title>1 submissions · 2026-04-02</title></rect><rect x="718" y="92" width="11" height="11" rx="2" ry="2" fill="#40c463"><title>2 submissions · 2026-04-09</title></rect><rect x="732" y="92" width="11" height="11" rx="2" ry="2" fill="#40c463"><title>3 submissions · 2026-04-16</title></rect><rect x="746" y="92" width="11" height="11" rx="2" ry="2" fill="#9be9a8"><title>1 submissions · 2026-04-23</title></rect><rect x="760" y="92" width="11" height="11" rx="2" ry="2" fill="#216e39"><title>25 submissions · 2026-04-30</title></rect><rect x="46" y="106" width="11" height="11" rx="2" ry="2" fill="#ebedf0"><title>0 submissions · 2025-05-09</title></rect><rect x="60" y="106" width="11" height="11" rx="2" ry="2" fill="#ebedf0"><title>0 submissions · 2025-05-16</title></rect><rect x="74" y="106" width="11" height="11" rx="2" ry="2" fill="#9be9a8"><title>1 submissions · 2025-05-23</title></rect><rect x="88" y="106" width="11" height="11" rx="2" ry="2" fill="#30a14e"><title>4 submissions · 2025-05-30</title></rect><rect x="102" y="106" width="11" height="11" rx="2" ry="2" fill="#40c463"><title>3 submissions · 2025-06-06</title></rect><rect x="116" y="106" width="11" height="11" rx="2" ry="2" fill="#ebedf0"><title>0 submissions · 2025-06-13</title></rect><rect x="130" y="106" width="11" height="11" rx="2" ry="2" fill="#40c463"><title>2 submissions · 2025-06-20</title></rect><rect x="144" y="106" width="11" height="11" rx="2" ry="2" fill="#ebedf0"><title>0 submissions · 2025-06-27</title></rect><rect x="158" y="106" width="11" height="11" rx="2" ry="2" fill="#ebedf0"><title>0 submissions · 2025-07-04</title></rect><rect x="172" y="106" width="11" height="11" rx="2" ry="2" fill="#30a14e"><title>4 submissions · 2025-07-11</title></rect><rect x="186" y="106" width="11" height="11" rx="2" ry="2" fill="#30a14e"><title>4 submissions · 2025-07-18</title></rect><rect x="200" y="106" width="11" height="11" rx="2" ry="2" fill="#ebedf0"><title>0 submissions · 2025-07-25</title></rect><rect x="214" y="106" width="11" height="11" rx="2" ry="2" fill="#30a14e"><title>5 submissions · 2025-08-01</title></rect><rect x="228" y="106" width="11" height="11" rx="2" ry="2" fill="#9be9a8"><title>1 submissions · 2025-08-08</title></rect><rect x="242" y="106" width="11" height="11" rx="2" ry="2" fill="#9be9a8"><title>1 submissions · 2025-08-15</title></rect><rect x="256" y="106" width="11" height="11" rx="2" ry="2" fill="#ebedf0"><title>0 submissions · 2025-08-22</title></rect><rect x="270" y="106" width="11" height="11" rx="2" ry="2" fill="#9be9a8"><title>1 submissions · 2025-08-29</title></rect><rect x="284" y="106" width="11" height="11" rx="2" ry="2" fill="#ebedf0"><title>0 submissions · 2025-09-05</title></rect><rect x="298" y="106" width="11" height="11" rx="2" ry="2" fill="#40c463"><title>2 submissions · 2025-09-12</title></rect><rect x="312" y="106" width="11" height="11" rx="2" ry="2" fill="#ebedf0"><title>0 submissions · 2025-09-19</title></rect><rect x="326" y="106" width="11" height="11" rx="2" ry="2" fill="#9be9a8"><title>1 submissions · 2025-09-26</title></rect><rect x="340" y="106" width="11" height="11" rx="2" ry="2" fill="#40c463"><title>3 submissions · 2025-10-03</title></rect><rect x="354" y="106" width="11" height="11" rx="2" ry="2" fill="#40c463"><title>2 submissions · 2025-10-10</title></rect><rect x="368" y="106" width="11" height="11" rx="2" ry="2" fill="#30a14e"><title>4 submissions · 2025-10-17</title></rect><rect x="382" y="106" width="11" height="11" rx="2" ry="2" fill="#216e39"><title>8 submissions · 2025-10-24</title></rect><rect x="396" y="106" width="11" height="11" rx="2" ry="2" fill="#ebedf0"><title>0 submissions · 2025-10-31</title></rect><rect x="410" y="106" width="11" height="11" rx="2" ry="2" fill="#9be9a8"><title>1 submissions · 2025-11-07</title></rect><rect x="424" y="106" width="11" height="11" rx="2" ry="2" fill="#30a14e"><title>4 submissions · 2025-11-14</title></rect><rect x="438" y="106" width="11" height="11" rx="2" ry="2" fill="#ebedf0"><title>0 submissions · 2025-11-21</title></rect><rect x="452" y="106" width="11" height="11" rx="2" ry="2" fill="#30a14e"><title>4 submissions · 2025-11-28</title></rect><rect x="466" y="106" width="11" height="11" rx="2" ry="2" fill="#216e39"><title>56 submissions · 2025-12-05</title></rect><rect x="480" y="106" width="11" height="11" rx="2" ry="2" fill="#9be9a8"><title>1 submissions · 2025-12-12</title></rect><rect x="494" y="106" width="11" height="11" rx="2" ry="2" fill="#216e39"><title>13 submissions · 2025-12-19</title></rect><rect x="508" y="106" width="11" height="11" rx="2" ry="2" fill="#30a14e"><title>5 submissions · 2025-12-26</title></rect><rect x="522" y="106" width="11" height="11" rx="2" ry="2" fill="#30a14e"><title>4 submissions · 2026-01-02</title></rect><rect x="536" y="106" width="11" height="11" rx="2" ry="2" fill="#9be9a8"><title>1 submissions · 2026-01-09</title></rect><rect x="550" y="106" width="11" height="11" rx="2" ry="2" fill="#30a14e"><title>5 submissions · 2026-01-16</title></rect><rect x="564" y="106" width="11" height="11" rx="2" ry="2" fill="#30a14e"><title>4 submissions · 2026-01-23</title></rect><rect x="578" y="106" width="11" height="11" rx="2" ry="2" fill="#216e39"><title>18 submissions · 2026-01-30</title></rect><rect x="592" y="106" width="11" height="11" rx="2" ry="2" fill="#216e39"><title>16 submissions · 2026-02-06</title></rect><rect x="606" y="106" width="11" height="11" rx="2" ry="2" fill="#9be9a8"><title>1 submissions · 2026-02-13</title></rect><rect x="620" y="106" width="11" height="11" rx="2" ry="2" fill="#216e39"><title>17 submissions · 2026-02-20</title></rect><rect x="634" y="106" width="11" height="11" rx="2" ry="2" fill="#216e39"><title>9 submissions · 2026-02-27</title></rect><rect x="648" y="106" width="11" height="11" rx="2" ry="2" fill="#9be9a8"><title>1 submissions · 2026-03-06</title></rect><rect x="662" y="106" width="11" height="11" rx="2" ry="2" fill="#216e39"><title>8 submissions · 2026-03-13</title></rect><rect x="676" y="106" width="11" height="11" rx="2" ry="2" fill="#ebedf0"><title>0 submissions · 2026-03-20</title></rect><rect x="690" y="106" width="11" height="11" rx="2" ry="2" fill="#9be9a8"><title>1 submissions · 2026-03-27</title></rect><rect x="704" y="106" width="11" height="11" rx="2" ry="2" fill="#ebedf0"><title>0 submissions · 2026-04-03</title></rect><rect x="718" y="106" width="11" height="11" rx="2" ry="2" fill="#ebedf0"><title>0 submissions · 2026-04-10</title></rect><rect x="732" y="106" width="11" height="11" rx="2" ry="2" fill="#9be9a8"><title>1 submissions · 2026-04-17</title></rect><rect x="746" y="106" width="11" height="11" rx="2" ry="2" fill="#9be9a8"><title>1 submissions · 2026-04-24</title></rect><rect x="760" y="106" width="11" height="11" rx="2" ry="2" fill="#9be9a8"><title>1 submissions · 2026-05-01</title></rect><rect x="46" y="120" width="11" height="11" rx="2" ry="2" fill="#30a14e"><title>5 submissions · 2025-05-10</title></rect><rect x="60" y="120" width="11" height="11" rx="2" ry="2" fill="#216e39"><title>7 submissions · 2025-05-17</title></rect><rect x="74" y="120" width="11" height="11" rx="2" ry="2" fill="#216e39"><title>31 submissions · 2025-05-24</title></rect><rect x="88" y="120" width="11" height="11" rx="2" ry="2" fill="#40c463"><title>3 submissions · 2025-05-31</title></rect><rect x="102" y="120" width="11" height="11" rx="2" ry="2" fill="#40c463"><title>3 submissions · 2025-06-07</title></rect><rect x="116" y="120" width="11" height="11" rx="2" ry="2" fill="#40c463"><title>3 submissions · 2025-06-14</title></rect><rect x="130" y="120" width="11" height="11" rx="2" ry="2" fill="#30a14e"><title>4 submissions · 2025-06-21</title></rect><rect x="144" y="120" width="11" height="11" rx="2" ry="2" fill="#ebedf0"><title>0 submissions · 2025-06-28</title></rect><rect x="158" y="120" width="11" height="11" rx="2" ry="2" fill="#9be9a8"><title>1 submissions · 2025-07-05</title></rect><rect x="172" y="120" width="11" height="11" rx="2" ry="2" fill="#9be9a8"><title>1 submissions · 2025-07-12</title></rect><rect x="186" y="120" width="11" height="11" rx="2" ry="2" fill="#ebedf0"><title>0 submissions · 2025-07-19</title></rect><rect x="200" y="120" width="11" height="11" rx="2" ry="2" fill="#9be9a8"><title>1 submissions · 2025-07-26</title></rect><rect x="214" y="120" width="11" height="11" rx="2" ry="2" fill="#40c463"><title>2 submissions · 2025-08-02</title></rect><rect x="228" y="120" width="11" height="11" rx="2" ry="2" fill="#40c463"><title>2 submissions · 2025-08-09</title></rect><rect x="242" y="120" width="11" height="11" rx="2" ry="2" fill="#ebedf0"><title>0 submissions · 2025-08-16</title></rect><rect x="256" y="120" width="11" height="11" rx="2" ry="2" fill="#216e39"><title>39 submissions · 2025-08-23</title></rect><rect x="270" y="120" width="11" height="11" rx="2" ry="2" fill="#9be9a8"><title>1 submissions · 2025-08-30</title></rect><rect x="284" y="120" width="11" height="11" rx="2" ry="2" fill="#40c463"><title>2 submissions · 2025-09-06</title></rect><rect x="298" y="120" width="11" height="11" rx="2" ry="2" fill="#40c463"><title>2 submissions · 2025-09-13</title></rect><rect x="312" y="120" width="11" height="11" rx="2" ry="2" fill="#ebedf0"><title>0 submissions · 2025-09-20</title></rect><rect x="326" y="120" width="11" height="11" rx="2" ry="2" fill="#9be9a8"><title>1 submissions · 2025-09-27</title></rect><rect x="340" y="120" width="11" height="11" rx="2" ry="2" fill="#30a14e"><title>4 submissions · 2025-10-04</title></rect><rect x="354" y="120" width="11" height="11" rx="2" ry="2" fill="#40c463"><title>2 submissions · 2025-10-11</title></rect><rect x="368" y="120" width="11" height="11" rx="2" ry="2" fill="#40c463"><title>2 submissions · 2025-10-18</title></rect><rect x="382" y="120" width="11" height="11" rx="2" ry="2" fill="#9be9a8"><title>1 submissions · 2025-10-25</title></rect><rect x="396" y="120" width="11" height="11" rx="2" ry="2" fill="#ebedf0"><title>0 submissions · 2025-11-01</title></rect><rect x="410" y="120" width="11" height="11" rx="2" ry="2" fill="#40c463"><title>2 submissions · 2025-11-08</title></rect><rect x="424" y="120" width="11" height="11" rx="2" ry="2" fill="#9be9a8"><title>1 submissions · 2025-11-15</title></rect><rect x="438" y="120" width="11" height="11" rx="2" ry="2" fill="#216e39"><title>23 submissions · 2025-11-22</title></rect><rect x="452" y="120" width="11" height="11" rx="2" ry="2" fill="#216e39"><title>51 submissions · 2025-11-29</title></rect><rect x="466" y="120" width="11" height="11" rx="2" ry="2" fill="#216e39"><title>6 submissions · 2025-12-06</title></rect><rect x="480" y="120" width="11" height="11" rx="2" ry="2" fill="#216e39"><title>14 submissions · 2025-12-13</title></rect><rect x="494" y="120" width="11" height="11" rx="2" ry="2" fill="#216e39"><title>24 submissions · 2025-12-20</title></rect><rect x="508" y="120" width="11" height="11" rx="2" ry="2" fill="#40c463"><title>3 submissions · 2025-12-27</title></rect><rect x="522" y="120" width="11" height="11" rx="2" ry="2" fill="#30a14e"><title>5 submissions · 2026-01-03</title></rect><rect x="536" y="120" width="11" height="11" rx="2" ry="2" fill="#ebedf0"><title>0 submissions · 2026-01-10</title></rect><rect x="550" y="120" width="11" height="11" rx="2" ry="2" fill="#40c463"><title>3 submissions · 2026-01-17</title></rect><rect x="564" y="120" width="11" height="11" rx="2" ry="2" fill="#9be9a8"><title>1 submissions · 2026-01-24</title></rect><rect x="578" y="120" width="11" height="11" rx="2" ry="2" fill="#216e39"><title>16 submissions · 2026-01-31</title></rect><rect x="592" y="120" width="11" height="11" rx="2" ry="2" fill="#216e39"><title>31 submissions · 2026-02-07</title></rect><rect x="606" y="120" width="11" height="11" rx="2" ry="2" fill="#216e39"><title>7 submissions · 2026-02-14</title></rect><rect x="620" y="120" width="11" height="11" rx="2" ry="2" fill="#ebedf0"><title>0 submissions · 2026-02-21</title></rect><rect x="634" y="120" width="11" height="11" rx="2" ry="2" fill="#30a14e"><title>4 submissions · 2026-02-28</title></rect><rect x="648" y="120" width="11" height="11" rx="2" ry="2" fill="#30a14e"><title>5 submissions · 2026-03-07</title></rect><rect x="662" y="120" width="11" height="11" rx="2" ry="2" fill="#9be9a8"><title>1 submissions · 2026-03-14</title></rect><rect x="676" y="120" width="11" height="11" rx="2" ry="2" fill="#40c463"><title>2 submissions · 2026-03-21</title></rect><rect x="690" y="120" width="11" height="11" rx="2" ry="2" fill="#9be9a8"><title>1 submissions · 2026-03-28</title></rect><rect x="704" y="120" width="11" height="11" rx="2" ry="2" fill="#216e39"><title>16 submissions · 2026-04-04</title></rect><rect x="718" y="120" width="11" height="11" rx="2" ry="2" fill="#40c463"><title>2 submissions · 2026-04-11</title></rect><rect x="732" y="120" width="11" height="11" rx="2" ry="2" fill="#ebedf0"><title>0 submissions · 2026-04-18</title></rect><rect x="746" y="120" width="11" height="11" rx="2" ry="2" fill="#9be9a8"><title>1 submissions · 2026-04-25</title></rect><rect x="760" y="120" width="11" height="11" rx="2" ry="2" fill="#ebedf0"><title>0 submissions · 2026-05-02</title></rect><rect x="32" y="134" width="11" height="11" rx="2" ry="2" fill="#ebedf0"><title>0 submissions · 2025-05-04</title></rect><rect x="46" y="134" width="11" height="11" rx="2" ry="2" fill="#9be9a8"><title>1 submissions · 2025-05-11</title></rect><rect x="60" y="134" width="11" height="11" rx="2" ry="2" fill="#ebedf0"><title>0 submissions · 2025-05-18</title></rect><rect x="74" y="134" width="11" height="11" rx="2" ry="2" fill="#40c463"><title>3 submissions · 2025-05-25</title></rect><rect x="88" y="134" width="11" height="11" rx="2" ry="2" fill="#40c463"><title>3 submissions · 2025-06-01</title></rect><rect x="102" y="134" width="11" height="11" rx="2" ry="2" fill="#30a14e"><title>5 submissions · 2025-06-08</title></rect><rect x="116" y="134" width="11" height="11" rx="2" ry="2" fill="#ebedf0"><title>0 submissions · 2025-06-15</title></rect><rect x="130" y="134" width="11" height="11" rx="2" ry="2" fill="#30a14e"><title>5 submissions · 2025-06-22</title></rect><rect x="144" y="134" width="11" height="11" rx="2" ry="2" fill="#216e39"><title>7 submissions · 2025-06-29</title></rect><rect x="158" y="134" width="11" height="11" rx="2" ry="2" fill="#9be9a8"><title>1 submissions · 2025-07-06</title></rect><rect x="172" y="134" width="11" height="11" rx="2" ry="2" fill="#ebedf0"><title>0 submissions · 2025-07-13</title></rect><rect x="186" y="134" width="11" height="11" rx="2" ry="2" fill="#ebedf0"><title>0 submissions · 2025-07-20</title></rect><rect x="200" y="134" width="11" height="11" rx="2" ry="2" fill="#ebedf0"><title>0 submissions · 2025-07-27</title></rect><rect x="214" y="134" width="11" height="11" rx="2" ry="2" fill="#ebedf0"><title>0 submissions · 2025-08-03</title></rect><rect x="228" y="134" width="11" height="11" rx="2" ry="2" fill="#ebedf0"><title>0 submissions · 2025-08-10</title></rect><rect x="242" y="134" width="11" height="11" rx="2" ry="2" fill="#ebedf0"><title>0 submissions · 2025-08-17</title></rect><rect x="256" y="134" width="11" height="11" rx="2" ry="2" fill="#ebedf0"><title>0 submissions · 2025-08-24</title></rect><rect x="270" y="134" width="11" height="11" rx="2" ry="2" fill="#9be9a8"><title>1 submissions · 2025-08-31</title></rect><rect x="284" y="134" width="11" height="11" rx="2" ry="2" fill="#9be9a8"><title>1 submissions · 2025-09-07</title></rect><rect x="298" y="134" width="11" height="11" rx="2" ry="2" fill="#40c463"><title>2 submissions · 2025-09-14</title></rect><rect x="312" y="134" width="11" height="11" rx="2" ry="2" fill="#9be9a8"><title>1 submissions · 2025-09-21</title></rect><rect x="326" y="134" width="11" height="11" rx="2" ry="2" fill="#40c463"><title>2 submissions · 2025-09-28</title></rect><rect x="340" y="134" width="11" height="11" rx="2" ry="2" fill="#9be9a8"><title>1 submissions · 2025-10-05</title></rect><rect x="354" y="134" width="11" height="11" rx="2" ry="2" fill="#9be9a8"><title>1 submissions · 2025-10-12</title></rect><rect x="368" y="134" width="11" height="11" rx="2" ry="2" fill="#40c463"><title>3 submissions · 2025-10-19</title></rect><rect x="382" y="134" width="11" height="11" rx="2" ry="2" fill="#9be9a8"><title>1 submissions · 2025-10-26</title></rect><rect x="396" y="134" width="11" height="11" rx="2" ry="2" fill="#ebedf0"><title>0 submissions · 2025-11-02</title></rect><rect x="410" y="134" width="11" height="11" rx="2" ry="2" fill="#9be9a8"><title>1 submissions · 2025-11-09</title></rect><rect x="424" y="134" width="11" height="11" rx="2" ry="2" fill="#30a14e"><title>4 submissions · 2025-11-16</title></rect><rect x="438" y="134" width="11" height="11" rx="2" ry="2" fill="#216e39"><title>32 submissions · 2025-11-23</title></rect><rect x="452" y="134" width="11" height="11" rx="2" ry="2" fill="#30a14e"><title>5 submissions · 2025-11-30</title></rect><rect x="466" y="134" width="11" height="11" rx="2" ry="2" fill="#216e39"><title>16 submissions · 2025-12-07</title></rect><rect x="480" y="134" width="11" height="11" rx="2" ry="2" fill="#216e39"><title>6 submissions · 2025-12-14</title></rect><rect x="494" y="134" width="11" height="11" rx="2" ry="2" fill="#216e39"><title>62 submissions · 2025-12-21</title></rect><rect x="508" y="134" width="11" height="11" rx="2" ry="2" fill="#30a14e"><title>4 submissions · 2025-12-28</title></rect><rect x="522" y="134" width="11" height="11" rx="2" ry="2" fill="#40c463"><title>2 submissions · 2026-01-04</title></rect><rect x="536" y="134" width="11" height="11" rx="2" ry="2" fill="#40c463"><title>3 submissions · 2026-01-11</title></rect><rect x="550" y="134" width="11" height="11" rx="2" ry="2" fill="#40c463"><title>2 submissions · 2026-01-18</title></rect><rect x="564" y="134" width="11" height="11" rx="2" ry="2" fill="#9be9a8"><title>1 submissions · 2026-01-25</title></rect><rect x="578" y="134" width="11" height="11" rx="2" ry="2" fill="#216e39"><title>13 submissions · 2026-02-01</title></rect><rect x="592" y="134" width="11" height="11" rx="2" ry="2" fill="#216e39"><title>27 submissions · 2026-02-08</title></rect><rect x="606" y="134" width="11" height="11" rx="2" ry="2" fill="#216e39"><title>7 submissions · 2026-02-15</title></rect><rect x="620" y="134" width="11" height="11" rx="2" ry="2" fill="#216e39"><title>16 submissions · 2026-02-22</title></rect><rect x="634" y="134" width="11" height="11" rx="2" ry="2" fill="#9be9a8"><title>1 submissions · 2026-03-01</title></rect><rect x="648" y="134" width="11" height="11" rx="2" ry="2" fill="#216e39"><title>11 submissions · 2026-03-08</title></rect><rect x="662" y="134" width="11" height="11" rx="2" ry="2" fill="#9be9a8"><title>1 submissions · 2026-03-15</title></rect><rect x="676" y="134" width="11" height="11" rx="2" ry="2" fill="#9be9a8"><title>1 submissions · 2026-03-22</title></rect><rect x="690" y="134" width="11" height="11" rx="2" ry="2" fill="#9be9a8"><title>1 submissions · 2026-03-29</title></rect><rect x="704" y="134" width="11" height="11" rx="2" ry="2" fill="#216e39"><title>6 submissions · 2026-04-05</title></rect><rect x="718" y="134" width="11" height="11" rx="2" ry="2" fill="#9be9a8"><title>1 submissions · 2026-04-12</title></rect><rect x="732" y="134" width="11" height="11" rx="2" ry="2" fill="#216e39"><title>9 submissions · 2026-04-19</title></rect><rect x="746" y="134" width="11" height="11" rx="2" ry="2" fill="#216e39"><title>6 submissions · 2026-04-26</title></rect><rect x="760" y="134" width="11" height="11" rx="2" ry="2" fill="#9be9a8"><title>1 submissions · 2026-05-03</title></rect><text class="t m" x="624" y="165" text-anchor="start">Меньше</text><rect x="668" y="155" width="11" height="11" rx="2" ry="2" fill="#ebedf0"/><rect x="682" y="155" width="11" height="11" rx="2" ry="2" fill="#9be9a8"/><rect x="696" y="155" width="11" height="11" rx="2" ry="2" fill="#40c463"/><rect x="710" y="155" width="11" height="11" rx="2" ry="2" fill="#30a14e"/><rect x="724" y="155" width="11" height="11" rx="2" ry="2" fill="#216e39"/><text class="t m" x="742" y="165">Больше</text></svg>